<svg width="62" height="36" viewBox="0 0 62 36" fill="none" xmlns="http://www.w3.org/2000/svg">
<path d="M6.97 22.6V14.59H9.39V20.18H11.26C11.35 20.18 11.43 20.08 11.5 20C12.9 18.61 14.29 17.22 15.68 15.82C15.75 15.75 15.83 15.66 15.83 15.56C15.84 14.97 15.83 14.38 15.84 13.75H6.98C6.98 12.97 6.96 12.23 6.98 11.5C6.98 11.43 7.1 11.37 7.17 11.32C7.21 11.3 7.28 11.32 7.33 11.32H17.96C18.04 11.32 18.12 11.32 18.26 11.33C18.26 11.77 18.28 12.2 18.28 12.62C18.28 13.83 18.29 15.05 18.28 16.26C18.28 16.47 18.21 16.71 18.07 16.85C16.24 18.7 14.4 20.54 12.55 22.37C12.41 22.51 12.18 22.61 11.98 22.61C10.45 22.63 8.91 22.62 7.38 22.62C7.26 22.62 7.14 22.62 6.98 22.6H6.97Z" fill="#D5D9E1"/>
<path d="M23.41 12.92H26.67C29.34 12.92 31.19 14.48 31.19 17.18C31.19 19.88 29.34 21.44 26.67 21.44H23.41V12.92ZM24.19 13.56V20.8H26.64C28.89 20.8 30.4 19.5 30.4 17.17C30.4 14.84 28.89 13.55 26.64 13.55H24.19V13.56Z" fill="#D5D9E1"/>
<path d="M31.73 18.26C31.73 16.24 33.13 14.92 35.02 14.92C36.91 14.92 38.27 16.16 38.27 18.16V18.29H32.46C32.48 19.97 33.53 20.99 35.02 20.99C36.21 20.99 37.13 20.3 37.44 19.14H38.18C37.81 20.66 36.6 21.58 35 21.58C33.1 21.58 31.72 20.33 31.72 18.26H31.73ZM32.5 17.75H37.52C37.31 16.36 36.35 15.51 35.02 15.51C33.69 15.51 32.69 16.37 32.5 17.75Z" fill="#D5D9E1"/>
<path d="M38.24 20.92L42.95 15.65H38.3V15.08H43.91V15.6L39.19 20.87H43.88V21.44H38.24V20.92Z" fill="#D5D9E1"/>
<path d="M44.47 13.33H45.25V14.33H44.47V13.33ZM44.5 15.07H45.23V21.44H44.5V15.07Z" fill="#D5D9E1"/>
<path d="M45.85 19.86C45.85 18.5 47.24 18.14 48.93 17.81C50.31 17.54 50.93 17.24 50.93 16.71C50.93 16.04 50.19 15.5 49.02 15.5C47.85 15.5 47.01 16.11 46.74 17.17H46.03C46.3 15.83 47.42 14.93 49.04 14.93C50.57 14.93 51.66 15.64 51.66 16.93V21.43H50.94V20.35C50.34 21.12 49.33 21.56 48.23 21.56C46.76 21.56 45.85 20.91 45.85 19.85V19.86ZM48.31 21C49.37 21 50.43 20.56 50.94 19.81V17.64C50.61 17.94 49.98 18.21 49 18.39C47.62 18.65 46.58 18.91 46.58 19.84C46.58 20.63 47.35 21 48.31 21Z" fill="#D5D9E1"/>
</svg>
